{"title":"River.of.Darkness.[2011].DvdRip.XviD-KnÃƒÂ£","uid":6505067,"size":1011019776,"categoryP":"video","categoryS":"movies","magnet":"?xt=urn:btih:ceb4ec38cb5e6bb413ba9109d950712fb6342311&amp;dn=River.of.Darkness.%5B2011%5D.DvdRip.XviD-Kn%C3%83%C2%A3&amp;tr=udp%3A%2F%2Ftracker.openbittorrent.com%3A80&amp;tr=udp%3A%2F%2Fopen.demonii.com%3A1337&amp;tr=udp%3A%2F%2Ftracker.coppersurfer.tk%3A6969&amp;tr=udp%3A%2F%2Fexodus.desync.com%3A6969","seeders":0,"leechers":1,"uploader":"Jon.Pson","files":1,"time":1309399389,"description":"When brutal murdering starts in a small riverside town, the sheriff must investigate and face the horrific past. \n\n\nGeneral\nComplete name                    : X:\\Movies\\River.of.Darkness.[2011].DvdRip.XviD-KnÃƒÂ£\\River.of.Darkness.[2011].DvdRip.XviD-KnÃƒÂ£.avi\nFormat                           : AVI\nFormat/Info                      : Audio Video Interleave\nFile size                        : 964 MiB\nDuration                         : 1h 24mn\nOverall bit rate                 : 1 603 Kbps\nWriting application              : VirtualDubMod 1.5.4.1 (build 2178/release)\nWriting library                  : VirtualDubMod build 2178/release\n\nVideo\nID                               : 0\nFormat                           : MPEG-4 Visual\nFormat profile                   : Simple@L3\nFormat settings, BVOP            : No\nFormat settings, QPel            : No\nFormat settings, GMC             : No warppoints\nFormat settings, Matrix          : Default (H.263)\nCodec ID                         : XVID\nCodec ID/Hint                    : XviD\nDuration                         : 1h 24mn\nBit rate                         : 1 146 Kbps\nWidth                            : 720 pixels\nHeight                           : 320 pixels\nDisplay aspect ratio             : 2.25:1\nFrame rate                       : 29.970 fps\nColor space                      : YUV\nChroma subsampling               : 4:2:0\nBit depth                        : 8 bits\nScan type                        : Progressive\nBits/(Pixel*Frame)               : 0.166\nStream size                      : 689 MiB (71%)\nWriting library                  : XviD 1.2.1 (UTC 2008-12-04)\n\nAudio\nID                               : 1\nFormat                           : AC-3\nFormat/Info                      : Audio Coding 3\nMode extension                   : CM (complete main)\nCodec ID                         : 2000\nDuration                         : 1h 24mn\nBit rate mode                    : Constant\nBit rate                         : 448 Kbps\nChannel(s)                       : 6 channels\nChannel positions                : Front: L C R, Side: L R, LFE\nSampling rate                    : 48.0 KHz\nBit depth                        : 16 bits\nStream size                      : 269 MiB (28%)\nAlignment                        : Split accross interleaves\nInterleave, duration             : 67 ms (2.00 video frames)\nInterleave, preload duration     : 500 ms\nLanguage                         : English\n\n","torrent":{"xt":"urn:btih:ceb4ec38cb5e6bb413ba9109d950712fb6342311","amp;dn":"River.of.Darkness.%5B2011%5D.DvdRip.XviD-Kn%C3%83%C2%A3","amp;tr":["udp%3A%2F%2Ftracker.openbittorrent.com%3A80","udp%3A%2F%2Fopen.demonii.com%3A1337","udp%3A%2F%2Ftracker.coppersurfer.tk%3A6969","udp%3A%2F%2Fexodus.desync.com%3A6969"],"infoHash":"ceb4ec38cb5e6bb413ba9109d950712fb6342311","infoHashBuffer":{"type":"Buffer","data":[206,180,236,56,203,94,107,180,19,186,145,9,217,80,113,47,182,52,35,17]},"announce":[],"urlList":[]}}